<?xml version="1.0" encoding="UTF-8"?>
<svg width="901px" height="517px" viewBox="0 0 901 517" version="1.1" xmlns="http://www.w3.org/2000/svg" xmlns:xlink="http://www.w3.org/1999/xlink">
    <title>SiloGrão</title>
    <defs>
        <path d="M541.016026,314.141027 C543.040026,316.385027 544.052026,319.399027 544.052026,323.183027 C544.052026,325.823027 543.546026,328.243027 542.534026,330.443027 C541.522026,332.643027 540.158026,334.601027 538.442026,336.317027 C536.726026,338.033027 534.746026,339.551027 532.502026,340.871027 C530.258026,342.191027 527.904026,343.247027 525.440026,344.039027 C524.736026,344.215027 524.406026,344.545027 524.450026,345.029027 C524.494026,345.513027 524.692026,345.843027 525.044026,346.019027 C529.884026,349.803027 533.668026,354.247027 536.396026,359.351027 C539.124026,364.455027 540.488026,369.955027 540.488026,375.851027 C540.488026,381.659027 539.014026,387.159027 536.066026,392.351027 C533.118026,397.543027 529.114026,402.075027 524.054026,405.947027 C518.994026,409.819027 513.010026,412.877027 506.102026,415.121027 C499.194026,417.365027 491.780026,418.487027 483.860026,418.487027 C481.836026,418.487027 479.812026,418.377027 477.788026,418.157027 C475.764026,417.937027 473.740026,418.003027 471.716026,418.355027 C469.868026,418.619027 468.108026,419.323027 466.436026,420.467027 C464.764026,421.611027 463.928026,423.195027 463.928026,425.219027 C463.928026,426.979027 464.500026,428.563027 465.644026,429.971027 C466.788026,431.379027 468.900026,432.743027 471.980026,434.063027 C475.060026,435.383027 479.372026,436.703027 484.916026,438.023027 C490.460026,439.343027 497.588026,440.751027 506.300026,442.247027 C515.892026,443.919027 523.878026,445.921027 530.258026,448.253027 C536.638026,450.585027 541.720026,453.247027 545.504026,456.239027 C549.288026,459.231027 551.950026,462.553027 553.490026,466.205027 C555.030026,469.857027 555.800026,473.839027 555.800026,478.151027 C555.800026,480.879027 555.316026,483.739027 554.348026,486.731027 C553.380026,489.723027 551.774026,492.649027 549.530026,495.509027 C547.286026,498.369027 544.338026,501.075027 540.686026,503.627027 C537.034026,506.179027 532.524026,508.445027 527.156026,510.425027 C521.788026,512.405027 515.452026,513.967027 508.148026,515.111027 C500.844026,516.255027 492.484026,516.827027 483.068026,516.827027 C473.652026,516.827027 465.468026,516.365027 458.516026,515.441027 C451.564026,514.517027 445.646026,513.285027 440.762026,511.745027 C435.878026,510.205027 431.896026,508.445027 428.816026,506.465027 C425.736026,504.485027 423.338026,502.417027 421.622026,500.261027 C419.906026,498.105027 418.740026,495.949027 418.124026,493.793027 C417.508026,491.637027 417.200026,489.591027 417.200026,487.655027 C417.200026,484.927027 417.904026,482.265027 419.312026,479.669027 C420.720026,477.073027 422.722026,474.675027 425.318026,472.475027 C427.914026,470.275027 431.038026,468.361027 434.690026,466.733027 C438.342026,465.105027 442.456026,463.851027 447.032026,462.971027 C447.560026,462.795027 447.846026,462.553027 447.890026,462.245027 C447.934026,461.937027 447.736026,461.607027 447.296026,461.255027 C443.600026,458.791027 440.564026,455.799027 438.188026,452.279027 C435.812026,448.759027 434.624026,444.535027 434.624026,439.607027 C434.624026,436.351027 435.196026,433.447027 436.340026,430.895027 C437.484026,428.343027 439.112026,426.099027 441.224026,424.163027 C443.336026,422.227027 445.866026,420.577027 448.814026,419.213027 C451.762026,417.849027 454.996026,416.771027 458.516026,415.979027 C459.132026,415.803027 459.440026,415.495027 459.440026,415.055027 C459.440026,414.615027 459.176026,414.307027 458.648026,414.131027 C454.160026,412.459027 450.134026,410.325027 446.570026,407.729027 C443.006026,405.133027 439.970026,402.229027 437.462026,399.017027 C434.954026,395.805027 433.018026,392.307027 431.654026,388.523027 C430.290026,384.739027 429.608026,380.779027 429.608026,376.643027 C429.608026,370.835027 431.060026,365.357027 433.964026,360.209027 C436.868026,355.061027 440.872026,350.529027 445.976026,346.613027 C451.080026,342.697027 457.086026,339.617027 463.994026,337.373027 C470.902026,335.129027 478.316026,334.007027 486.236026,334.007027 C496.620026,334.007027 505.948026,335.899027 514.220026,339.683027 C515.452026,340.123027 516.464026,340.035027 517.256026,339.419027 C519.016026,338.011027 520.226026,336.515027 520.886026,334.931027 C521.546026,333.347027 521.898026,331.741027 521.942026,330.113027 C521.986026,328.485027 521.898026,326.945027 521.678026,325.493027 C521.458026,324.041027 521.348026,322.743027 521.348026,321.599027 C521.348026,318.783027 522.272026,316.275027 524.120026,314.075027 C525.968026,311.875027 528.740026,310.775027 532.436026,310.775027 C536.132026,310.775027 538.992026,311.897027 541.016026,314.141027 Z M457.196026,466.931027 C454.028026,468.075027 451.256026,469.791027 448.880026,472.079027 C446.504026,474.367027 445.316026,477.623027 445.316026,481.847027 C445.316026,486.687027 446.548026,490.823027 449.012026,494.255027 C451.476026,497.687027 454.710026,500.525027 458.714026,502.769027 C462.718026,505.013027 467.338026,506.663027 472.574026,507.719027 C477.810026,508.775027 483.200026,509.303027 488.744026,509.303027 C492.704026,509.303027 496.774026,508.929027 500.954026,508.181027 C505.134026,507.433027 508.984026,506.333027 512.504026,504.881027 C516.024026,503.429027 518.906026,501.603027 521.150026,499.403027 C523.394026,497.203027 524.516026,494.695027 524.516026,491.879027 C524.516026,489.151027 523.482026,486.841027 521.414026,484.949027 C519.346026,483.057027 516.596026,481.407027 513.164026,479.999027 C509.732026,478.591027 505.838026,477.425027 501.482026,476.501027 C497.126026,475.577027 492.660026,474.719027 488.084026,473.927027 C484.036026,473.223027 479.394026,472.343027 474.158026,471.287027 C468.922026,470.231027 463.796026,468.779027 458.780026,466.931027 C458.340026,466.755027 457.812026,466.755027 457.196026,466.931027 Z M61.292,335.327027 C65.956,336.207027 70.026,337.197027 73.502,338.297027 C76.978,339.397027 79.75,340.431027 81.818,341.399027 C83.886,342.367027 85.052,342.895027 85.316,342.983027 C85.844,343.247027 86.152,343.467027 86.24,343.643027 C86.328,343.819027 86.416,344.127027 86.504,344.567027 C86.504,344.743027 86.724,345.953027 87.164,348.197027 C87.604,350.441027 88.044,352.883027 88.484,355.523027 C88.924,358.163027 89.364,360.583027 89.804,362.783027 C90.244,364.983027 90.464,366.215027 90.464,366.479027 C90.64,367.359027 90.332,367.997027 89.54,368.393027 C88.748,368.789027 88.044,368.547027 87.428,367.667027 C86.196,365.907027 84.26,363.531027 81.62,360.539027 C78.98,357.547027 75.768,354.599027 71.984,351.695027 C68.2,348.791027 63.998,346.261027 59.378,344.105027 C54.758,341.949027 49.852,340.871027 44.66,340.871027 C39.204,340.871027 35.2,342.323027 32.648,345.227027 C30.096,348.131027 28.82,351.651027 28.82,355.787027 C28.82,357.899027 29.128,359.945027 29.744,361.925027 C30.36,363.905027 31.68,365.819027 33.704,367.667027 C35.728,369.515027 38.654,371.385027 42.482,373.277027 C46.31,375.169027 51.436,377.083027 57.86,379.019027 C70.708,382.979027 80.432,388.347027 87.032,395.123027 C93.632,401.899027 96.932,410.655027 96.932,421.391027 C96.932,426.847027 96.008,431.885027 94.16,436.505027 C92.312,441.125027 89.452,445.129027 85.58,448.517027 C81.708,451.905027 76.78,454.567027 70.796,456.503027 C64.812,458.439027 57.684,459.407027 49.412,459.407027 C42.46,459.407027 36.278,458.901027 30.866,457.889027 C25.454,456.877027 20.878,455.755027 17.138,454.523027 C13.398,453.291027 10.472,452.125027 8.36,451.025027 C6.248,449.925027 5.016,449.243027 4.664,448.979027 C4.488,448.803027 4.334,448.539027 4.202,448.187027 C4.07,447.835027 3.96,447.439027 3.872,446.999027 C3.872,446.823027 3.674,445.569027 3.278,443.237027 C2.882,440.905027 2.464,438.331027 2.024,435.515027 C1.584,432.699027 1.166,430.037027 0.77,427.529027 C0.374,425.021027 0.132,423.459027 0.044,422.843027 C-0.132,421.611027 0.22,420.885027 1.1,420.665027 C1.98,420.445027 2.64,420.687027 3.08,421.391027 C3.168,421.655027 3.74,422.579027 4.796,424.163027 C5.852,425.747027 7.304,427.683027 9.152,429.971027 C11,432.259027 13.222,434.723027 15.818,437.363027 C18.414,440.003027 21.318,442.445027 24.53,444.689027 C27.742,446.933027 31.24,448.781027 35.024,450.233027 C38.808,451.685027 42.856,452.411027 47.168,452.411027 C52.184,452.411027 56.122,451.047027 58.982,448.319027 C61.842,445.591027 63.272,441.983027 63.272,437.495027 C63.272,435.119027 62.964,432.787027 62.348,430.499027 C61.732,428.211027 60.412,425.923027 58.388,423.635027 C56.364,421.347027 53.46,419.081027 49.676,416.837027 C45.892,414.593027 40.832,412.327027 34.496,410.039027 C28.688,408.015027 23.804,405.595027 19.844,402.779027 C15.884,399.963027 12.672,396.817027 10.208,393.341027 C7.744,389.865027 5.962,386.125027 4.862,382.121027 C3.762,378.117027 3.212,373.871027 3.212,369.383027 C3.212,365.951027 3.828,362.189027 5.06,358.097027 C6.292,354.005027 8.514,350.177027 11.726,346.613027 C14.938,343.049027 19.316,340.057027 24.86,337.637027 C30.404,335.217027 37.488,334.007027 46.112,334.007027 C51.568,334.007027 56.628,334.447027 61.292,335.327027 Z M336.018816,338.825027 C343.630816,342.037027 350.164816,346.437027 355.620816,352.025027 C361.076816,357.613027 365.344816,364.191027 368.424816,371.759027 C371.504816,379.327027 373.044816,387.423027 373.044816,396.047027 C373.044816,404.759027 371.372816,412.943027 368.028816,420.599027 C364.684816,428.255027 360.108816,434.965027 354.300816,440.729027 C348.492816,446.493027 341.650816,451.047027 333.774816,454.391027 C325.898816,457.735027 317.428816,459.407027 308.364816,459.407027 C299.300816,459.407027 290.962816,457.801027 283.350816,454.589027 C275.738816,451.377027 269.204816,446.977027 263.748816,441.389027 C258.292816,435.801027 254.024816,429.245027 250.944816,421.721027 C247.864816,414.197027 246.324816,406.079027 246.324816,397.367027 C246.324816,388.743027 247.996816,380.581027 251.340816,372.881027 C254.684816,365.181027 259.260816,358.449027 265.068816,352.685027 C270.876816,346.921027 277.718816,342.367027 285.594816,339.023027 C293.470816,335.679027 301.940816,334.007027 311.004816,334.007027 C320.068816,334.007027 328.406816,335.613027 336.018816,338.825027 Z M727.929236,336.977027 C734.837236,338.957027 740.469236,341.839027 744.825236,345.623027 C749.181236,349.407027 752.349236,354.093027 754.329236,359.681027 C756.309236,365.269027 757.299236,371.627027 757.299236,378.755027 C757.299236,387.291027 757.035236,395.299027 756.507236,402.779027 C755.979236,410.259027 755.605236,416.881027 755.385236,422.645027 C755.165236,428.409027 755.275236,433.161027 755.715236,436.901027 C756.155236,440.641027 757.387236,442.951027 759.411236,443.831027 C760.291236,444.271027 761.391236,444.469027 762.711236,444.425027 C764.031236,444.381027 765.439236,444.227027 766.935236,443.963027 C768.167236,443.699027 769.135236,443.941027 769.839236,444.689027 C770.543236,445.437027 770.587236,446.427027 769.971236,447.659027 C769.443236,448.627027 768.585236,449.771027 767.397236,451.091027 C766.209236,452.411027 764.625236,453.643027 762.645236,454.787027 C760.665236,455.931027 758.245236,456.899027 755.385236,457.691027 C752.525236,458.483027 749.159236,458.879027 745.287236,458.879027 C739.919236,458.879027 735.409236,457.801027 731.757236,455.645027 C728.105236,453.489027 725.575236,451.003027 724.167236,448.187027 C723.815236,447.483027 723.309236,447.175027 722.649236,447.263027 C721.989236,447.351027 721.439236,447.615027 720.999236,448.055027 C720.735236,448.319027 719.921236,449.045027 718.557236,450.233027 C717.193236,451.421027 715.257236,452.697027 712.749236,454.061027 C710.241236,455.425027 707.227236,456.657027 703.707236,457.757027 C700.187236,458.857027 696.139236,459.407027 691.563236,459.407027 C683.731236,459.407027 677.153236,458.307027 671.829236,456.107027 C666.505236,453.907027 662.193236,451.069027 658.893236,447.593027 C655.593236,444.117027 653.217236,440.201027 651.765236,435.845027 C650.313236,431.489027 649.587236,427.155027 649.587236,422.843027 C649.587236,415.891027 651.545236,409.819027 655.461236,404.627027 C659.377236,399.435027 664.459236,395.563027 670.707236,393.011027 C674.051236,391.691027 677.549236,390.745027 681.201236,390.173027 C684.853236,389.601027 688.483236,389.007027 692.091236,388.391027 C695.699236,387.775027 699.241236,387.005027 702.717236,386.081027 C706.193236,385.157027 709.471236,383.639027 712.551236,381.527027 C715.807236,379.327027 718.073236,376.511027 719.349236,373.079027 C720.625236,369.647027 721.263236,365.995027 721.263236,362.123027 C721.263236,359.307027 720.889236,356.601027 720.141236,354.005027 C719.393236,351.409027 718.337236,349.143027 716.973236,347.207027 C715.609236,345.271027 714.025236,343.731027 712.221236,342.587027 C710.417236,341.443027 708.459236,340.871027 706.347236,340.871027 C702.563236,340.871027 699.791236,341.839027 698.031236,343.775027 C696.271236,345.711027 694.885236,348.043027 693.873236,350.771027 C692.861236,353.499027 691.915236,356.337027 691.035236,359.285027 C690.155236,362.233027 688.747236,364.763027 686.811236,366.875027 C685.227236,368.547027 683.181236,369.801027 680.673236,370.637027 C678.165236,371.473027 675.767236,371.891027 673.479236,371.891027 C671.103236,371.891027 668.991236,371.495027 667.143236,370.703027 C665.295236,369.911027 663.711236,368.833027 662.391236,367.469027 C661.071236,366.105027 660.081236,364.521027 659.421236,362.717027 C658.761236,360.913027 658.431236,358.999027 658.431236,356.975027 C658.431236,354.247027 659.091236,351.519027 660.411236,348.791027 C661.731236,346.063027 664.085236,343.599027 667.473236,341.399027 C670.861236,339.199027 675.415236,337.417027 681.135236,336.053027 C686.855236,334.689027 694.115236,334.007027 702.915236,334.007027 C712.683236,334.007027 721.021236,334.997027 727.929236,336.977027 Z M862.998842,338.825027 C870.610842,342.037027 877.144842,346.437027 882.600842,352.025027 C888.056842,357.613027 892.324842,364.191027 895.404842,371.759027 C898.484842,379.327027 900.024842,387.423027 900.024842,396.047027 C900.024842,404.759027 898.352842,412.943027 895.008842,420.599027 C891.664842,428.255027 887.088842,434.965027 881.280842,440.729027 C875.472842,446.493027 868.630842,451.047027 860.754842,454.391027 C852.878842,457.735027 844.408842,459.407027 835.344842,459.407027 C826.280842,459.407027 817.942842,457.801027 810.330842,454.589027 C802.718842,451.377027 796.184842,446.977027 790.728842,441.389027 C785.272842,435.801027 781.004842,429.245027 777.924842,421.721027 C774.844842,414.197027 773.304842,406.079027 773.304842,397.367027 C773.304842,388.743027 774.976842,380.581027 778.320842,372.881027 C781.664842,365.181027 786.240842,358.449027 792.048842,352.685027 C797.856842,346.921027 804.698842,342.367027 812.574842,339.023027 C820.450842,335.679027 828.920842,334.007027 837.984842,334.007027 C847.048842,334.007027 855.386842,335.613027 862.998842,338.825027 Z M602.099631,333.347027 C602.935631,333.435027 603.353631,334.095027 603.353631,335.327027 L603.353631,354.203027 C606.433631,347.427027 610.613631,342.367027 615.893631,339.023027 C621.173631,335.679027 627.113631,334.007027 633.713631,334.007027 C637.409631,334.007027 640.533631,334.469027 643.085631,335.393027 C645.637631,336.317027 647.705631,337.549027 649.289631,339.089027 C650.873631,340.629027 652.017631,342.433027 652.721631,344.501027 C653.425631,346.569027 653.777631,348.747027 653.777631,351.035027 C653.777631,355.259027 652.435631,358.559027 649.751631,360.935027 C647.067631,363.311027 643.481631,364.499027 638.993631,364.499027 C635.561631,364.499027 632.877631,363.883027 630.941631,362.651027 C629.005631,361.419027 627.355631,360.077027 625.991631,358.625027 C624.627631,357.173027 623.373631,355.831027 622.229631,354.599027 C621.085631,353.367027 619.677631,352.751027 618.005631,352.751027 C616.509631,352.751027 614.903631,353.257027 613.187631,354.269027 C611.471631,355.281027 609.887631,357.195027 608.435631,360.011027 C606.983631,362.827027 605.773631,366.699027 604.805631,371.627027 C603.837631,376.555027 603.353631,382.935027 603.353631,390.767027 L603.353631,436.439027 C603.353631,439.959027 603.947631,442.731027 605.135631,444.755027 C606.323631,446.779027 607.687631,448.319027 609.227631,449.375027 C610.767631,450.431027 612.285631,451.157027 613.781631,451.553027 C615.277631,451.949027 616.377631,452.191027 617.081631,452.279027 C617.785631,452.455027 618.291631,452.741027 618.599631,453.137027 C618.907631,453.533027 619.017631,453.951027 618.929631,454.391027 C618.841631,454.831027 618.599631,455.227027 618.203631,455.579027 C617.807631,455.931027 617.257631,456.107027 616.553631,456.107027 L554.513631,456.107027 C553.809631,456.107027 553.259631,455.931027 552.863631,455.579027 C552.467631,455.227027 552.225631,454.831027 552.137631,454.391027 C552.049631,453.951027 552.159631,453.533027 552.467631,453.137027 C552.775631,452.741027 553.281631,452.455027 553.985631,452.279027 C554.689631,452.191027 555.789631,451.949027 557.285631,451.553027 C558.781631,451.157027 560.299631,450.431027 561.839631,449.375027 C563.379631,448.319027 564.743631,446.779027 565.931631,444.755027 C567.119631,442.731027 567.713631,439.959027 567.713631,436.439027 L567.713631,361.991027 C567.713631,360.847027 567.185631,360.143027 566.129631,359.879027 C565.953631,359.879027 565.315631,359.747027 564.215631,359.483027 C563.115631,359.219027 561.861631,358.911027 560.453631,358.559027 C559.045631,358.207027 557.747631,357.899027 556.559631,357.635027 C555.371631,357.371027 554.645631,357.195027 554.381631,357.107027 C553.237631,356.843027 552.643631,356.249027 552.599631,355.325027 C552.555631,354.401027 553.193631,353.763027 554.513631,353.411027 C557.945631,352.619027 561.663631,351.541027 565.667631,350.177027 C569.671631,348.813027 573.697631,347.273027 577.745631,345.557027 C581.793631,343.841027 585.709631,341.993027 589.493631,340.013027 C593.277631,338.033027 596.665631,336.031027 599.657631,334.007027 C600.449631,333.479027 601.263631,333.259027 602.099631,333.347027 Z M225.36921,258.107027 C226.20521,258.195027 226.62321,258.855027 226.62321,260.087027 L226.62321,434.723027 C226.62321,438.331027 227.39321,441.235027 228.93321,443.435027 C230.47321,445.635027 232.23321,447.373027 234.21321,448.649027 C236.19321,449.925027 238.12921,450.827027 240.02121,451.355027 C241.91321,451.883027 243.21121,452.191027 243.91521,452.279027 C244.61921,452.455027 245.12521,452.741027 245.43321,453.137027 C245.74121,453.533027 245.85121,453.951027 245.76321,454.391027 C245.67521,454.831027 245.43321,455.227027 245.03721,455.579027 C244.64121,455.931027 244.09121,456.107027 243.38721,456.107027 L174.21921,456.107027 C173.542617,456.107027 173.008266,455.944463 172.616159,455.619336 C172.227072,455.944912 171.693264,456.107027 171.017605,456.107027 L104.753605,456.107027 C104.049605,456.107027 103.499605,455.931027 103.103605,455.579027 C102.707605,455.227027 102.465605,454.831027 102.377605,454.391027 C102.289605,453.951027 102.399605,453.533027 102.707605,453.137027 C103.015605,452.741027 103.521605,452.455027 104.225605,452.279027 C104.929605,452.191027 106.139605,451.905027 107.855605,451.421027 C109.571605,450.937027 111.331605,450.101027 113.135605,448.913027 C114.939605,447.725027 116.545605,446.053027 117.953605,443.897027 C119.361605,441.741027 120.065605,438.903027 120.065605,435.383027 L120.065605,361.991027 C120.065605,360.847027 119.537605,360.143027 118.481605,359.879027 C118.305605,359.879027 117.667605,359.747027 116.567605,359.483027 C115.467605,359.219027 114.213605,358.911027 112.805605,358.559027 C111.397605,358.207027 110.099605,357.899027 108.911605,357.635027 C107.723605,357.371027 106.997605,357.195027 106.733605,357.107027 C105.589605,356.843027 104.995605,356.249027 104.951605,355.325027 C104.907605,354.401027 105.545605,353.763027 106.865605,353.411027 C110.297605,352.619027 114.015605,351.541027 118.019605,350.177027 C122.023605,348.813027 126.049605,347.273027 130.097605,345.557027 C134.145605,343.841027 138.061605,341.993027 141.845605,340.013027 C145.629605,338.033027 149.017605,336.031027 152.009605,334.007027 C152.801605,333.479027 153.615605,333.259027 154.451605,333.347027 C155.287605,333.435027 155.705605,334.095027 155.705605,335.327027 L155.705605,435.383027 C155.705605,438.903027 156.409605,441.741027 157.817605,443.897027 C159.225605,446.053027 160.831605,447.725027 162.635605,448.913027 C164.439605,450.101027 166.199605,450.937027 167.915605,451.421027 C169.631605,451.905027 170.841605,452.191027 171.545605,452.279027 C171.978875,452.387344 172.337149,452.537326 172.620427,452.728972 C172.899666,452.537326 173.257941,452.387344 173.69121,452.279027 C174.39521,452.191027 175.69321,451.883027 177.58521,451.355027 C179.47721,450.827027 181.41321,449.925027 183.39321,448.649027 C185.37321,447.373027 187.13321,445.635027 188.67321,443.435027 C190.21321,441.235027 190.98321,438.331027 190.98321,434.723027 L190.98321,286.751027 C190.98321,285.607027 190.45521,284.903027 189.39921,284.639027 C189.22321,284.639027 188.58521,284.507027 187.48521,284.243027 C186.38521,283.979027 185.13121,283.671027 183.72321,283.319027 C182.31521,282.967027 181.01721,282.659027 179.82921,282.395027 C178.64121,282.131027 177.91521,281.955027 177.65121,281.867027 C176.50721,281.603027 175.91321,281.009027 175.86921,280.085027 C175.82521,279.161027 176.46321,278.523027 177.78321,278.171027 C181.21521,277.379027 184.93321,276.301027 188.93721,274.937027 C192.94121,273.573027 196.96721,272.033027 201.01521,270.317027 C205.06321,268.601027 208.97921,266.753027 212.76321,264.773027 C216.54721,262.793027 219.93521,260.791027 222.92721,258.767027 C223.71921,258.239027 224.53321,258.019027 225.36921,258.107027 Z M825.642842,345.359027 C822.518842,348.263027 819.900842,352.245027 817.788842,357.305027 C815.676842,362.365027 814.114842,368.283027 813.102842,375.059027 C812.090842,381.835027 811.584842,389.051027 811.584842,396.707027 C811.584842,404.363027 812.090842,411.579027 813.102842,418.355027 C814.114842,425.131027 815.676842,431.049027 817.788842,436.109027 C819.900842,441.169027 822.518842,445.151027 825.642842,448.055027 C828.766842,450.959027 832.440842,452.411027 836.664842,452.411027 C840.888842,452.411027 844.562842,450.959027 847.686842,448.055027 C850.810842,445.151027 853.406842,441.169027 855.474842,436.109027 C857.542842,431.049027 859.104842,425.131027 860.160842,418.355027 C861.216842,411.579027 861.744842,404.363027 861.744842,396.707027 C861.744842,389.051027 861.216842,381.835027 860.160842,375.059027 C859.104842,368.283027 857.542842,362.365027 855.474842,357.305027 C853.406842,352.245027 850.810842,348.263027 847.686842,345.359027 C844.562842,342.455027 840.888842,341.003027 836.664842,341.003027 C832.440842,341.003027 828.766842,342.455027 825.642842,345.359027 Z M298.662816,345.359027 C295.538816,348.263027 292.920816,352.245027 290.808816,357.305027 C288.696816,362.365027 287.134816,368.283027 286.122816,375.059027 C285.110816,381.835027 284.604816,389.051027 284.604816,396.707027 C284.604816,404.363027 285.110816,411.579027 286.122816,418.355027 C287.134816,425.131027 288.696816,431.049027 290.808816,436.109027 C292.920816,441.169027 295.538816,445.151027 298.662816,448.055027 C301.786816,450.959027 305.460816,452.411027 309.684816,452.411027 C313.908816,452.411027 317.582816,450.959027 320.706816,448.055027 C323.830816,445.151027 326.426816,441.169027 328.494816,436.109027 C330.562816,431.049027 332.124816,425.131027 333.180816,418.355027 C334.236816,411.579027 334.764816,404.363027 334.764816,396.707027 C334.764816,389.051027 334.236816,381.835027 333.180816,375.059027 C332.124816,368.283027 330.562816,362.365027 328.494816,357.305027 C326.426816,352.245027 323.830816,348.263027 320.706816,345.359027 C317.582816,342.455027 313.908816,341.003027 309.684816,341.003027 C305.460816,341.003027 301.786816,342.455027 298.662816,345.359027 Z M719.283236,384.299027 C718.579236,385.091027 717.941236,385.839027 717.369236,386.543027 C716.797236,387.247027 716.027236,388.083027 715.059236,389.051027 C713.387236,390.811027 711.671236,392.461027 709.911236,394.001027 C708.151236,395.541027 706.391236,397.103027 704.631236,398.687027 C702.871236,400.095027 701.133236,401.503027 699.417236,402.911027 C697.701236,404.319027 696.095236,405.859027 694.599236,407.531027 C692.311236,410.171027 690.617236,413.053027 689.517236,416.177027 C688.417236,419.301027 687.867236,422.623027 687.867236,426.143027 C687.867236,428.519027 688.219236,430.917027 688.923236,433.337027 C689.627236,435.757027 690.705236,437.913027 692.157236,439.805027 C693.609236,441.697027 695.457236,443.237027 697.701236,444.425027 C699.945236,445.613027 702.651236,446.207027 705.819236,446.207027 C708.987236,446.207027 711.561236,445.547027 713.541236,444.227027 C715.521236,442.907027 717.061236,441.323027 718.161236,439.475027 C719.261236,437.627027 720.031236,435.757027 720.471236,433.865027 C720.911236,431.973027 721.131236,430.499027 721.131236,429.443027 L721.131236,384.959027 C721.131236,384.431027 720.911236,384.079027 720.471236,383.903027 C720.031236,383.727027 719.635236,383.859027 719.283236,384.299027 Z M477.458026,343.379027 C475.302026,345.227027 473.520026,347.779027 472.112026,351.035027 C470.704026,354.291027 469.648026,358.075027 468.944026,362.387027 C468.240026,366.699027 467.888026,371.319027 467.888026,376.247027 C467.888026,381.175027 468.240026,385.795027 468.944026,390.107027 C469.648026,394.419027 470.704026,398.203027 472.112026,401.459027 C473.520026,404.715027 475.302026,407.267027 477.458026,409.115027 C479.614026,410.963027 482.144026,411.887027 485.048026,411.887027 C487.952026,411.887027 490.460026,410.963027 492.572026,409.115027 C494.684026,407.267027 496.466026,404.715027 497.918026,401.459027 C499.370026,398.203027 500.448026,394.419027 501.152026,390.107027 C501.856026,385.795027 502.208026,381.175027 502.208026,376.247027 C502.208026,371.319027 501.856026,366.699027 501.152026,362.387027 C500.448026,358.075027 499.370026,354.291027 497.918026,351.035027 C496.466026,347.779027 494.684026,345.227027 492.572026,343.379027 C490.460026,341.531027 487.952026,340.607027 485.048026,340.607027 C482.144026,340.607027 479.614026,341.531027 477.458026,343.379027 Z M707.865236,284.969027 C712.309236,286.333027 716.445236,287.807027 720.273236,289.391027 C724.101236,290.975027 727.973236,292.449027 731.889236,293.813027 C735.805236,295.177027 740.359236,295.859027 745.551236,295.859027 C750.391236,295.859027 754.329236,295.243027 757.365236,294.011027 C760.401236,292.779027 763.107236,291.283027 765.483236,289.523027 C766.187236,288.995027 766.847236,288.863027 767.463236,289.127027 C768.079236,289.391027 768.255236,290.051027 767.991236,291.107027 C766.935236,295.243027 765.351236,299.071027 763.239236,302.591027 C761.127236,306.111027 758.465236,309.169027 755.253236,311.765027 C752.041236,314.361027 748.323236,316.385027 744.099236,317.837027 C739.875236,319.289027 735.167236,320.015027 729.975236,320.015027 C724.519236,320.015027 719.261236,319.201027 714.201236,317.573027 C709.141236,315.945027 704.191236,314.141027 699.351236,312.161027 C694.511236,310.181027 689.803236,308.355027 685.227236,306.683027 C680.651236,305.011027 676.119236,304.175027 671.631236,304.175027 C668.287236,304.175027 665.581236,304.659027 663.513236,305.627027 C661.445236,306.595027 659.795236,307.519027 658.563236,308.399027 C657.771236,308.927027 657.067236,308.971027 656.451236,308.531027 C655.835236,308.091027 655.747236,307.431027 656.187236,306.551027 C658.035236,303.207027 660.037236,300.083027 662.193236,297.179027 C664.349236,294.275027 666.857236,291.767027 669.717236,289.655027 C672.577236,287.543027 675.811236,285.893027 679.419236,284.705027 C683.027236,283.517027 687.163236,282.923027 691.827236,282.923027 C698.075236,282.923027 703.421236,283.605027 707.865236,284.969027 Z M145.607605,275.597027 C148.203605,276.697027 150.447605,278.193027 152.339605,280.085027 C154.231605,281.977027 155.705605,284.199027 156.761605,286.751027 C157.817605,289.303027 158.345605,292.031027 158.345605,294.935027 C158.345605,297.839027 157.773605,300.589027 156.629605,303.185027 C155.485605,305.781027 153.901605,308.025027 151.877605,309.917027 C149.853605,311.809027 147.499605,313.327027 144.815605,314.471027 C142.131605,315.615027 139.205605,316.187027 136.037605,316.187027 C132.957605,316.187027 130.119605,315.637027 127.523605,314.537027 C124.927605,313.437027 122.683605,311.963027 120.791605,310.115027 C118.899605,308.267027 117.425605,306.067027 116.369605,303.515027 C115.313605,300.963027 114.785605,298.235027 114.785605,295.331027 C114.785605,292.427027 115.357605,289.677027 116.501605,287.081027 C117.645605,284.485027 119.207605,282.219027 121.187605,280.283027 C123.167605,278.347027 125.521605,276.807027 128.249605,275.663027 C130.977605,274.519027 133.881605,273.947027 136.961605,273.947027 C140.129605,273.947027 143.011605,274.497027 145.607605,275.597027 Z M470.581954,79.6249276 C480.860452,80.9505969 490.471011,78.703498 498.812431,100.143976 C507.153851,121.584454 503.648718,169.242022 487.677392,205.107027 C463.564829,259.253886 413.633,268.241981 397.456577,268.241981 C381.280154,268.241981 356.500139,267.619079 341.913881,252.988242 C327.327624,238.357405 324.137752,223.566722 321.942757,205.107027 C320.479427,192.800563 321.828589,179.256593 325.990242,164.475114 C349.459953,162.233846 365.266635,156.301484 373.410289,146.67803 C385.625769,132.242848 389.595056,103.106055 388.733799,97.3416413 C387.872543,91.5772276 442.527608,76.0066182 470.581954,79.6249276 Z M488.572184,91.7312165 C486.211307,92.8823074 473.928683,101.536922 462.624843,124.495599 C451.321003,147.454276 442.633147,169.045138 430.708,187.00525 C418.782853,204.965361 406.616793,217.423162 386.984472,229.616279 C367.352152,241.809395 346.936412,247.312054 349.303171,248.622742 C351.66993,249.933431 371.73859,247.597136 392.634088,239.268844 C413.529586,230.940553 433.722351,216.433232 448.686695,191.003358 C456.670898,177.435287 473.482627,131.600999 476.750388,119.21823 C480.018149,106.835462 490.933061,90.5801256 488.572184,91.7312165 Z M359.616889,37.601863 C388.579539,67.1544153 391.493552,124.905619 366.399913,145.575841 C341.306273,166.246063 283.382662,162.901602 252.405219,120.975759 C221.427775,79.0499155 228.34771,11.4653316 242.672686,3.83210547 C256.997662,-3.80112068 319.379832,-3.45472824 359.616889,37.601863 Z M254.129699,36.3538018 C259.82333,52.2606028 267.485693,80.3560055 275.884913,92.975646 C284.284134,105.595286 284.284134,109.494677 305.143631,124.134363 C319.049962,133.894154 337.282086,139.557263 359.840003,141.12369 C358.439763,140.570225 357.394839,140.152786 356.70523,139.871374 C343.479198,134.474157 331.971588,128.311876 322.182398,121.384531 C306.35019,110.180829 296.649265,96.8112115 291.768055,89.7092802 C279.773569,72.2578641 265.983756,38.155348 259.82333,27.8726236 C255.716379,21.017474 250.25729,15.3825424 243.446062,10.9678288 C246.772733,17.2872767 250.333946,25.7492677 254.129699,36.3538018 Z" id="path-1"></path>
    </defs>
    <g id="SiloGrão" stroke="none" fill="none" xlink:href="#path-1" fill-rule="evenodd">
        <path d="M359.616889,37.601863 C388.579539,67.1544153 391.493552,124.905619 366.399913,145.575841 C341.306273,166.246063 283.382662,162.901602 252.405219,120.975759 C221.427775,79.0499155 228.34771,11.4653316 242.672686,3.83210547 C256.997662,-3.80112068 319.379832,-3.45472824 359.616889,37.601863 Z M243.446062,10.9678288 C246.772733,17.2872767 250.333946,25.7492677 254.129699,36.3538018 C259.82333,52.2606028 267.485693,80.3560055 275.884913,92.975646 C284.284134,105.595286 284.284134,109.494677 305.143631,124.134363 C319.049962,133.894154 337.282086,139.557263 359.840003,141.12369 C358.439763,140.570225 357.394839,140.152786 356.70523,139.871374 C343.479198,134.474157 331.971588,128.311876 322.182398,121.384531 C306.35019,110.180829 296.649265,96.8112115 291.768055,89.7092802 C279.773569,72.2578641 265.983756,38.155348 259.82333,27.8726236 C255.716379,21.017474 250.25729,15.3825424 243.446062,10.9678288 Z" id="Combined-Shape" fill="#0F8B44"></path>
        <path d="M470.581954,79.6249276 C480.860452,80.9505969 490.471011,78.703498 498.812431,100.143976 C507.153851,121.584454 503.648718,169.242022 487.677392,205.107027 C463.564829,259.253886 413.633,268.241981 397.456577,268.241981 C381.280154,268.241981 356.500139,267.619079 341.913881,252.988242 C327.327624,238.357405 324.137752,223.566722 321.942757,205.107027 C320.479427,192.800563 321.828589,179.256593 325.990242,164.475114 C349.459953,162.233846 365.266635,156.301484 373.410289,146.67803 C385.625769,132.242848 389.595056,103.106055 388.733799,97.3416413 C387.872543,91.5772276 442.527608,76.0066182 470.581954,79.6249276 Z M488.572184,91.7312165 C486.211307,92.8823074 473.928683,101.536922 462.624843,124.495599 C451.321003,147.454276 442.633147,169.045138 430.708,187.00525 C418.782853,204.965361 406.616793,217.423162 386.984472,229.616279 C367.352152,241.809395 346.936412,247.312054 349.303171,248.622742 C351.66993,249.933431 371.73859,247.597136 392.634088,239.268844 C413.529586,230.940553 433.722351,216.433232 448.686695,191.003358 C456.670898,177.435287 473.482627,131.600999 476.750388,119.21823 C480.018149,106.835462 490.933061,90.5801256 488.572184,91.7312165 Z" id="Combined-Shape" fill="#0F8B44"></path>
        <g id="silo-grão" stroke-width="1" transform="translate(0, 258.0882)" fill="#0F8B44">
            <path d="M3.872,188.910857 C3.872,188.734857 3.674,187.480857 3.278,185.148857 C2.882,182.816857 2.464,180.242857 2.024,177.426857 C1.584,174.610857 1.166,171.948857 0.77,169.440857 C0.374,166.932857 0.132,165.370857 0.044,164.754857 C-0.132,163.522857 0.22,162.796857 1.1,162.576857 C1.98,162.356857 2.64,162.598857 3.08,163.302857 C3.168,163.566857 3.74,164.490857 4.796,166.074857 C5.852,167.658857 7.304,169.594857 9.152,171.882857 C11,174.170857 13.222,176.634857 15.818,179.274857 C18.414,181.914857 21.318,184.356857 24.53,186.600857 C27.742,188.844857 31.24,190.692857 35.024,192.144857 C38.808,193.596857 42.856,194.322857 47.168,194.322857 C52.184,194.322857 56.122,192.958857 58.982,190.230857 C61.842,187.502857 63.272,183.894857 63.272,179.406857 C63.272,177.030857 62.964,174.698857 62.348,172.410857 C61.732,170.122857 60.412,167.834857 58.388,165.546857 C56.364,163.258857 53.46,160.992857 49.676,158.748857 C45.892,156.504857 40.832,154.238857 34.496,151.950857 C28.688,149.926857 23.804,147.506857 19.844,144.690857 C15.884,141.874857 12.672,138.728857 10.208,135.252857 C7.744,131.776857 5.962,128.036857 4.862,124.032857 C3.762,120.028857 3.212,115.782857 3.212,111.294857 C3.212,107.862857 3.828,104.100857 5.06,100.008857 C6.292,95.9168571 8.514,92.0888571 11.726,88.5248571 C14.938,84.9608571 19.316,81.9688571 24.86,79.5488571 C30.404,77.1288571 37.488,75.9188571 46.112,75.9188571 C51.568,75.9188571 56.628,76.3588571 61.292,77.2388571 C65.956,78.1188571 70.026,79.1088571 73.502,80.2088571 C76.978,81.3088571 79.75,82.3428571 81.818,83.3108571 C83.886,84.2788571 85.052,84.8068571 85.316,84.8948571 C85.844,85.1588571 86.152,85.3788571 86.24,85.5548571 C86.328,85.7308571 86.416,86.0388571 86.504,86.4788571 C86.504,86.6548571 86.724,87.8648571 87.164,90.1088571 C87.604,92.3528571 88.044,94.7948571 88.484,97.4348571 C88.924,100.074857 89.364,102.494857 89.804,104.694857 C90.244,106.894857 90.464,108.126857 90.464,108.390857 C90.64,109.270857 90.332,109.908857 89.54,110.304857 C88.748,110.700857 88.044,110.458857 87.428,109.578857 C86.196,107.818857 84.26,105.442857 81.62,102.450857 C78.98,99.4588571 75.768,96.5108571 71.984,93.6068571 C68.2,90.7028571 63.998,88.1728571 59.378,86.0168571 C54.758,83.8608571 49.852,82.7828571 44.66,82.7828571 C39.204,82.7828571 35.2,84.2348571 32.648,87.1388571 C30.096,90.0428571 28.82,93.5628571 28.82,97.6988571 C28.82,99.8108571 29.128,101.856857 29.744,103.836857 C30.36,105.816857 31.68,107.730857 33.704,109.578857 C35.728,111.426857 38.654,113.296857 42.482,115.188857 C46.31,117.080857 51.436,118.994857 57.86,120.930857 C70.708,124.890857 80.432,130.258857 87.032,137.034857 C93.632,143.810857 96.932,152.566857 96.932,163.302857 C96.932,168.758857 96.008,173.796857 94.16,178.416857 C92.312,183.036857 89.452,187.040857 85.58,190.428857 C81.708,193.816857 76.78,196.478857 70.796,198.414857 C64.812,200.350857 57.684,201.318857 49.412,201.318857 C42.46,201.318857 36.278,200.812857 30.866,199.800857 C25.454,198.788857 20.878,197.666857 17.138,196.434857 C13.398,195.202857 10.472,194.036857 8.36,192.936857 C6.248,191.836857 5.016,191.154857 4.664,190.890857 C4.488,190.714857 4.334,190.450857 4.202,190.098857 C4.07,189.746857 3.96,189.350857 3.872,188.910857 Z" id="Path" fill-rule="nonzero"></path>
            <path d="M155.705605,77.2388571 C155.705605,76.0068571 155.287605,75.3468571 154.451605,75.2588571 C153.615605,75.1708571 152.801605,75.3908571 152.009605,75.9188571 C149.017605,77.9428571 145.629605,79.9448571 141.845605,81.9248571 C138.061605,83.9048571 134.145605,85.7528571 130.097605,87.4688571 C126.049605,89.1848571 122.023605,90.7248571 118.019605,92.0888571 C114.015605,93.4528571 110.297605,94.5308571 106.865605,95.3228571 C105.545605,95.6748571 104.907605,96.3128571 104.951605,97.2368571 C104.995605,98.1608571 105.589605,98.7548571 106.733605,99.0188571 C106.997605,99.1068571 107.723605,99.2828571 108.911605,99.5468571 C110.099605,99.8108571 111.397605,100.118857 112.805605,100.470857 C114.213605,100.822857 115.467605,101.130857 116.567605,101.394857 C117.667605,101.658857 118.305605,101.790857 118.481605,101.790857 C119.537605,102.054857 120.065605,102.758857 120.065605,103.902857 L120.065605,177.294857 C120.065605,180.814857 119.361605,183.652857 117.953605,185.808857 C116.545605,187.964857 114.939605,189.636857 113.135605,190.824857 C111.331605,192.012857 109.571605,192.848857 107.855605,193.332857 C106.139605,193.816857 104.929605,194.102857 104.225605,194.190857 C103.521605,194.366857 103.015605,194.652857 102.707605,195.048857 C102.399605,195.444857 102.289605,195.862857 102.377605,196.302857 C102.465605,196.742857 102.707605,197.138857 103.103605,197.490857 C103.499605,197.842857 104.049605,198.018857 104.753605,198.018857 L171.017605,198.018857 C171.721605,198.018857 172.271605,197.842857 172.667605,197.490857 C173.063605,197.138857 173.305605,196.742857 173.393605,196.302857 C173.481605,195.862857 173.371605,195.444857 173.063605,195.048857 C172.755605,194.652857 172.249605,194.366857 171.545605,194.190857 C170.841605,194.102857 169.631605,193.816857 167.915605,193.332857 C166.199605,192.848857 164.439605,192.012857 162.635605,190.824857 C160.831605,189.636857 159.225605,187.964857 157.817605,185.808857 C156.409605,183.652857 155.705605,180.814857 155.705605,177.294857 L155.705605,77.2388571 Z M158.345605,36.8468571 C158.345605,39.7508571 157.773605,42.5008571 156.629605,45.0968571 C155.485605,47.6928571 153.901605,49.9368571 151.877605,51.8288571 C149.853605,53.7208571 147.499605,55.2388571 144.815605,56.3828571 C142.131605,57.5268571 139.205605,58.0988571 136.037605,58.0988571 C132.957605,58.0988571 130.119605,57.5488571 127.523605,56.4488571 C124.927605,55.3488571 122.683605,53.8748571 120.791605,52.0268571 C118.899605,50.1788571 117.425605,47.9788571 116.369605,45.4268571 C115.313605,42.8748571 114.785605,40.1468571 114.785605,37.2428571 C114.785605,34.3388571 115.357605,31.5888571 116.501605,28.9928571 C117.645605,26.3968571 119.207605,24.1308571 121.187605,22.1948571 C123.167605,20.2588571 125.521605,18.7188571 128.249605,17.5748571 C130.977605,16.4308571 133.881605,15.8588571 136.961605,15.8588571 C140.129605,15.8588571 143.011605,16.4088571 145.607605,17.5088571 C148.203605,18.6088571 150.447605,20.1048571 152.339605,21.9968571 C154.231605,23.8888571 155.705605,26.1108571 156.761605,28.6628571 C157.817605,31.2148571 158.345605,33.9428571 158.345605,36.8468571 Z" id="Shape" fill-rule="nonzero"></path>
            <path d="M226.62321,176.634857 C226.62321,180.242857 227.39321,183.146857 228.93321,185.346857 C230.47321,187.546857 232.23321,189.284857 234.21321,190.560857 C236.19321,191.836857 238.12921,192.738857 240.02121,193.266857 C241.91321,193.794857 243.21121,194.102857 243.91521,194.190857 C244.61921,194.366857 245.12521,194.652857 245.43321,195.048857 C245.74121,195.444857 245.85121,195.862857 245.76321,196.302857 C245.67521,196.742857 245.43321,197.138857 245.03721,197.490857 C244.64121,197.842857 244.09121,198.018857 243.38721,198.018857 L174.21921,198.018857 C173.51521,198.018857 172.96521,197.842857 172.56921,197.490857 C172.17321,197.138857 171.93121,196.742857 171.84321,196.302857 C171.75521,195.862857 171.86521,195.444857 172.17321,195.048857 C172.48121,194.652857 172.98721,194.366857 173.69121,194.190857 C174.39521,194.102857 175.69321,193.794857 177.58521,193.266857 C179.47721,192.738857 181.41321,191.836857 183.39321,190.560857 C185.37321,189.284857 187.13321,187.546857 188.67321,185.346857 C190.21321,183.146857 190.98321,180.242857 190.98321,176.634857 L190.98321,28.6628571 C190.98321,27.5188571 190.45521,26.8148571 189.39921,26.5508571 C189.22321,26.5508571 188.58521,26.4188571 187.48521,26.1548571 C186.38521,25.8908571 185.13121,25.5828571 183.72321,25.2308571 C182.31521,24.8788571 181.01721,24.5708571 179.82921,24.3068571 C178.64121,24.0428571 177.91521,23.8668571 177.65121,23.7788571 C176.50721,23.5148571 175.91321,22.9208571 175.86921,21.9968571 C175.82521,21.0728571 176.46321,20.4348571 177.78321,20.0828571 C181.21521,19.2908571 184.93321,18.2128571 188.93721,16.8488571 C192.94121,15.4848571 196.96721,13.9448571 201.01521,12.2288571 C205.06321,10.5128571 208.97921,8.66485714 212.76321,6.68485714 C216.54721,4.70485714 219.93521,2.70285714 222.92721,0.678857143 C223.71921,0.150857143 224.53321,-0.0691428571 225.36921,0.0188571429 C226.20521,0.106857143 226.62321,0.766857143 226.62321,1.99885714 L226.62321,176.634857 Z" id="Path" fill-rule="nonzero"></path>
            <path d="M311.004816,75.9188571 C320.068816,75.9188571 328.406816,77.5248571 336.018816,80.7368571 C343.630816,83.9488571 350.164816,88.3488571 355.620816,93.9368571 C361.076816,99.5248571 365.344816,106.102857 368.424816,113.670857 C371.504816,121.238857 373.044816,129.334857 373.044816,137.958857 C373.044816,146.670857 371.372816,154.854857 368.028816,162.510857 C364.684816,170.166857 360.108816,176.876857 354.300816,182.640857 C348.492816,188.404857 341.650816,192.958857 333.774816,196.302857 C325.898816,199.646857 317.428816,201.318857 308.364816,201.318857 C299.300816,201.318857 290.962816,199.712857 283.350816,196.500857 C275.738816,193.288857 269.204816,188.888857 263.748816,183.300857 C258.292816,177.712857 254.024816,171.156857 250.944816,163.632857 C247.864816,156.108857 246.324816,147.990857 246.324816,139.278857 C246.324816,130.654857 247.996816,122.492857 251.340816,114.792857 C254.684816,107.092857 259.260816,100.360857 265.068816,94.5968571 C270.876816,88.8328571 277.718816,84.2788571 285.594816,80.9348571 C293.470816,77.5908571 301.940816,75.9188571 311.004816,75.9188571 Z M309.684816,194.322857 C313.908816,194.322857 317.582816,192.870857 320.706816,189.966857 C323.830816,187.062857 326.426816,183.080857 328.494816,178.020857 C330.562816,172.960857 332.124816,167.042857 333.180816,160.266857 C334.236816,153.490857 334.764816,146.274857 334.764816,138.618857 C334.764816,130.962857 334.236816,123.746857 333.180816,116.970857 C332.124816,110.194857 330.562816,104.276857 328.494816,99.2168571 C326.426816,94.1568571 323.830816,90.1748571 320.706816,87.2708571 C317.582816,84.3668571 313.908816,82.9148571 309.684816,82.9148571 C305.460816,82.9148571 301.786816,84.3668571 298.662816,87.2708571 C295.538816,90.1748571 292.920816,94.1568571 290.808816,99.2168571 C288.696816,104.276857 287.134816,110.194857 286.122816,116.970857 C285.110816,123.746857 284.604816,130.962857 284.604816,138.618857 C284.604816,146.274857 285.110816,153.490857 286.122816,160.266857 C287.134816,167.042857 288.696816,172.960857 290.808816,178.020857 C292.920816,183.080857 295.538816,187.062857 298.662816,189.966857 C301.786816,192.870857 305.460816,194.322857 309.684816,194.322857 Z" id="Shape" fill-rule="nonzero"></path>
            <path d="M506.300026,184.158857 C515.892026,185.830857 523.878026,187.832857 530.258026,190.164857 C536.638026,192.496857 541.720026,195.158857 545.504026,198.150857 C549.288026,201.142857 551.950026,204.464857 553.490026,208.116857 C555.030026,211.768857 555.800026,215.750857 555.800026,220.062857 C555.800026,222.790857 555.316026,225.650857 554.348026,228.642857 C553.380026,231.634857 551.774026,234.560857 549.530026,237.420857 C547.286026,240.280857 544.338026,242.986857 540.686026,245.538857 C537.034026,248.090857 532.524026,250.356857 527.156026,252.336857 C521.788026,254.316857 515.452026,255.878857 508.148026,257.022857 C500.844026,258.166857 492.484026,258.738857 483.068026,258.738857 C473.652026,258.738857 465.468026,258.276857 458.516026,257.352857 C451.564026,256.428857 445.646026,255.196857 440.762026,253.656857 C435.878026,252.116857 431.896026,250.356857 428.816026,248.376857 C425.736026,246.396857 423.338026,244.328857 421.622026,242.172857 C419.906026,240.016857 418.740026,237.860857 418.124026,235.704857 C417.508026,233.548857 417.200026,231.502857 417.200026,229.566857 C417.200026,226.838857 417.904026,224.176857 419.312026,221.580857 C420.720026,218.984857 422.722026,216.586857 425.318026,214.386857 C427.914026,212.186857 431.038026,210.272857 434.690026,208.644857 C438.342026,207.016857 442.456026,205.762857 447.032026,204.882857 C447.560026,204.706857 447.846026,204.464857 447.890026,204.156857 C447.934026,203.848857 447.736026,203.518857 447.296026,203.166857 C443.600026,200.702857 440.564026,197.710857 438.188026,194.190857 C435.812026,190.670857 434.624026,186.446857 434.624026,181.518857 C434.624026,178.262857 435.196026,175.358857 436.340026,172.806857 C437.484026,170.254857 439.112026,168.010857 441.224026,166.074857 C443.336026,164.138857 445.866026,162.488857 448.814026,161.124857 C451.762026,159.760857 454.996026,158.682857 458.516026,157.890857 C459.132026,157.714857 459.440026,157.406857 459.440026,156.966857 C459.440026,156.526857 459.176026,156.218857 458.648026,156.042857 C454.160026,154.370857 450.134026,152.236857 446.570026,149.640857 C443.006026,147.044857 439.970026,144.140857 437.462026,140.928857 C434.954026,137.716857 433.018026,134.218857 431.654026,130.434857 C430.290026,126.650857 429.608026,122.690857 429.608026,118.554857 C429.608026,112.746857 431.060026,107.268857 433.964026,102.120857 C436.868026,96.9728571 440.872026,92.4408571 445.976026,88.5248571 C451.080026,84.6088571 457.086026,81.5288571 463.994026,79.2848571 C470.902026,77.0408571 478.316026,75.9188571 486.236026,75.9188571 C496.620026,75.9188571 505.948026,77.8108571 514.220026,81.5948571 C515.452026,82.0348571 516.464026,81.9468571 517.256026,81.3308571 C519.016026,79.9228571 520.226026,78.4268571 520.886026,76.8428571 C521.546026,75.2588571 521.898026,73.6528571 521.942026,72.0248571 C521.986026,70.3968571 521.898026,68.8568571 521.678026,67.4048571 C521.458026,65.9528571 521.348026,64.6548571 521.348026,63.5108571 C521.348026,60.6948571 522.272026,58.1868571 524.120026,55.9868571 C525.968026,53.7868571 528.740026,52.6868571 532.436026,52.6868571 C536.132026,52.6868571 538.992026,53.8088571 541.016026,56.0528571 C543.040026,58.2968571 544.052026,61.3108571 544.052026,65.0948571 C544.052026,67.7348571 543.546026,70.1548571 542.534026,72.3548571 C541.522026,74.5548571 540.158026,76.5128571 538.442026,78.2288571 C536.726026,79.9448571 534.746026,81.4628571 532.502026,82.7828571 C530.258026,84.1028571 527.904026,85.1588571 525.440026,85.9508571 C524.736026,86.1268571 524.406026,86.4568571 524.450026,86.9408571 C524.494026,87.4248571 524.692026,87.7548571 525.044026,87.9308571 C529.884026,91.7148571 533.668026,96.1588571 536.396026,101.262857 C539.124026,106.366857 540.488026,111.866857 540.488026,117.762857 C540.488026,123.570857 539.014026,129.070857 536.066026,134.262857 C533.118026,139.454857 529.114026,143.986857 524.054026,147.858857 C518.994026,151.730857 513.010026,154.788857 506.102026,157.032857 C499.194026,159.276857 491.780026,160.398857 483.860026,160.398857 C481.836026,160.398857 479.812026,160.288857 477.788026,160.068857 C475.764026,159.848857 473.740026,159.914857 471.716026,160.266857 C469.868026,160.530857 468.108026,161.234857 466.436026,162.378857 C464.764026,163.522857 463.928026,165.106857 463.928026,167.130857 C463.928026,168.890857 464.500026,170.474857 465.644026,171.882857 C466.788026,173.290857 468.900026,174.654857 471.980026,175.974857 C475.060026,177.294857 479.372026,178.614857 484.916026,179.934857 C490.460026,181.254857 497.588026,182.662857 506.300026,184.158857 Z M485.048026,82.5188571 C482.144026,82.5188571 479.614026,83.4428571 477.458026,85.2908571 C475.302026,87.1388571 473.520026,89.6908571 472.112026,92.9468571 C470.704026,96.2028571 469.648026,99.9868571 468.944026,104.298857 C468.240026,108.610857 467.888026,113.230857 467.888026,118.158857 C467.888026,123.086857 468.240026,127.706857 468.944026,132.018857 C469.648026,136.330857 470.704026,140.114857 472.112026,143.370857 C473.520026,146.626857 475.302026,149.178857 477.458026,151.026857 C479.614026,152.874857 482.144026,153.798857 485.048026,153.798857 C487.952026,153.798857 490.460026,152.874857 492.572026,151.026857 C494.684026,149.178857 496.466026,146.626857 497.918026,143.370857 C499.370026,140.114857 500.448026,136.330857 501.152026,132.018857 C501.856026,127.706857 502.208026,123.086857 502.208026,118.158857 C502.208026,113.230857 501.856026,108.610857 501.152026,104.298857 C500.448026,99.9868571 499.370026,96.2028571 497.918026,92.9468571 C496.466026,89.6908571 494.684026,87.1388571 492.572026,85.2908571 C490.460026,83.4428571 487.952026,82.5188571 485.048026,82.5188571 Z M488.744026,251.214857 C492.704026,251.214857 496.774026,250.840857 500.954026,250.092857 C505.134026,249.344857 508.984026,248.244857 512.504026,246.792857 C516.024026,245.340857 518.906026,243.514857 521.150026,241.314857 C523.394026,239.114857 524.516026,236.606857 524.516026,233.790857 C524.516026,231.062857 523.482026,228.752857 521.414026,226.860857 C519.346026,224.968857 516.596026,223.318857 513.164026,221.910857 C509.732026,220.502857 505.838026,219.336857 501.482026,218.412857 C497.126026,217.488857 492.660026,216.630857 488.084026,215.838857 C484.036026,215.134857 479.394026,214.254857 474.158026,213.198857 C468.922026,212.142857 463.796026,210.690857 458.780026,208.842857 C458.340026,208.666857 457.812026,208.666857 457.196026,208.842857 C454.028026,209.986857 451.256026,211.702857 448.880026,213.990857 C446.504026,216.278857 445.316026,219.534857 445.316026,223.758857 C445.316026,228.598857 446.548026,232.734857 449.012026,236.166857 C451.476026,239.598857 454.710026,242.436857 458.714026,244.680857 C462.718026,246.924857 467.338026,248.574857 472.574026,249.630857 C477.810026,250.686857 483.200026,251.214857 488.744026,251.214857 Z" id="Shape" fill-rule="nonzero"></path>
            <path d="M633.713631,75.9188571 C637.409631,75.9188571 640.533631,76.3808571 643.085631,77.3048571 C645.637631,78.2288571 647.705631,79.4608571 649.289631,81.0008571 C650.873631,82.5408571 652.017631,84.3448571 652.721631,86.4128571 C653.425631,88.4808571 653.777631,90.6588571 653.777631,92.9468571 C653.777631,97.1708571 652.435631,100.470857 649.751631,102.846857 C647.067631,105.222857 643.481631,106.410857 638.993631,106.410857 C635.561631,106.410857 632.877631,105.794857 630.941631,104.562857 C629.005631,103.330857 627.355631,101.988857 625.991631,100.536857 C624.627631,99.0848571 623.373631,97.7428571 622.229631,96.5108571 C621.085631,95.2788571 619.677631,94.6628571 618.005631,94.6628571 C616.509631,94.6628571 614.903631,95.1688571 613.187631,96.1808571 C611.471631,97.1928571 609.887631,99.1068571 608.435631,101.922857 C606.983631,104.738857 605.773631,108.610857 604.805631,113.538857 C603.837631,118.466857 603.353631,124.846857 603.353631,132.678857 L603.353631,178.350857 C603.353631,181.870857 603.947631,184.642857 605.135631,186.666857 C606.323631,188.690857 607.687631,190.230857 609.227631,191.286857 C610.767631,192.342857 612.285631,193.068857 613.781631,193.464857 C615.277631,193.860857 616.377631,194.102857 617.081631,194.190857 C617.785631,194.366857 618.291631,194.652857 618.599631,195.048857 C618.907631,195.444857 619.017631,195.862857 618.929631,196.302857 C618.841631,196.742857 618.599631,197.138857 618.203631,197.490857 C617.807631,197.842857 617.257631,198.018857 616.553631,198.018857 L603.353631,198.018857 L602.165631,198.018857 L568.901631,198.018857 L567.713631,198.018857 L554.513631,198.018857 C553.809631,198.018857 553.259631,197.842857 552.863631,197.490857 C552.467631,197.138857 552.225631,196.742857 552.137631,196.302857 C552.049631,195.862857 552.159631,195.444857 552.467631,195.048857 C552.775631,194.652857 553.281631,194.366857 553.985631,194.190857 C554.689631,194.102857 555.789631,193.860857 557.285631,193.464857 C558.781631,193.068857 560.299631,192.342857 561.839631,191.286857 C563.379631,190.230857 564.743631,188.690857 565.931631,186.666857 C567.119631,184.642857 567.713631,181.870857 567.713631,178.350857 L567.713631,103.902857 C567.713631,102.758857 567.185631,102.054857 566.129631,101.790857 C565.953631,101.790857 565.315631,101.658857 564.215631,101.394857 C563.115631,101.130857 561.861631,100.822857 560.453631,100.470857 C559.045631,100.118857 557.747631,99.8108571 556.559631,99.5468571 C555.371631,99.2828571 554.645631,99.1068571 554.381631,99.0188571 C553.237631,98.7548571 552.643631,98.1608571 552.599631,97.2368571 C552.555631,96.3128571 553.193631,95.6748571 554.513631,95.3228571 C557.945631,94.5308571 561.663631,93.4528571 565.667631,92.0888571 C569.671631,90.7248571 573.697631,89.1848571 577.745631,87.4688571 C581.793631,85.7528571 585.709631,83.9048571 589.493631,81.9248571 C593.277631,79.9448571 596.665631,77.9428571 599.657631,75.9188571 C600.449631,75.3908571 601.263631,75.1708571 602.099631,75.2588571 C602.935631,75.3468571 603.353631,76.0068571 603.353631,77.2388571 L603.353631,96.1148571 C606.433631,89.3388571 610.613631,84.2788571 615.893631,80.9348571 C621.173631,77.5908571 627.113631,75.9188571 633.713631,75.9188571 Z" id="Path" fill-rule="nonzero"></path>
            <path d="M766.935236,185.874857 C765.439236,186.138857 764.031236,186.292857 762.711236,186.336857 C761.391236,186.380857 760.291236,186.182857 759.411236,185.742857 C757.387236,184.862857 756.155236,182.552857 755.715236,178.812857 C755.275236,175.072857 755.165236,170.320857 755.385236,164.556857 C755.605236,158.792857 755.979236,152.170857 756.507236,144.690857 C757.035236,137.210857 757.299236,129.202857 757.299236,120.666857 C757.299236,113.538857 756.309236,107.180857 754.329236,101.592857 C752.349236,96.0048571 749.181236,91.3188571 744.825236,87.5348571 C740.469236,83.7508571 734.837236,80.8688571 727.929236,78.8888571 C721.021236,76.9088571 712.683236,75.9188571 702.915236,75.9188571 C694.115236,75.9188571 686.855236,76.6008571 681.135236,77.9648571 C675.415236,79.3288571 670.861236,81.1108571 667.473236,83.3108571 C664.085236,85.5108571 661.731236,87.9748571 660.411236,90.7028571 C659.091236,93.4308571 658.431236,96.1588571 658.431236,98.8868571 C658.431236,100.910857 658.761236,102.824857 659.421236,104.628857 C660.081236,106.432857 661.071236,108.016857 662.391236,109.380857 C663.711236,110.744857 665.295236,111.822857 667.143236,112.614857 C668.991236,113.406857 671.103236,113.802857 673.479236,113.802857 C675.767236,113.802857 678.165236,113.384857 680.673236,112.548857 C683.181236,111.712857 685.227236,110.458857 686.811236,108.786857 C688.747236,106.674857 690.155236,104.144857 691.035236,101.196857 C691.915236,98.2488571 692.861236,95.4108571 693.873236,92.6828571 C694.885236,89.9548571 696.271236,87.6228571 698.031236,85.6868571 C699.791236,83.7508571 702.563236,82.7828571 706.347236,82.7828571 C708.459236,82.7828571 710.417236,83.3548571 712.221236,84.4988571 C714.025236,85.6428571 715.609236,87.1828571 716.973236,89.1188571 C718.337236,91.0548571 719.393236,93.3208571 720.141236,95.9168571 C720.889236,98.5128571 721.263236,101.218857 721.263236,104.034857 C721.263236,107.906857 720.625236,111.558857 719.349236,114.990857 C718.073236,118.422857 715.807236,121.238857 712.551236,123.438857 C709.471236,125.550857 706.193236,127.068857 702.717236,127.992857 C699.241236,128.916857 695.699236,129.686857 692.091236,130.302857 C688.483236,130.918857 684.853236,131.512857 681.201236,132.084857 C677.549236,132.656857 674.051236,133.602857 670.707236,134.922857 C664.459236,137.474857 659.377236,141.346857 655.461236,146.538857 C651.545236,151.730857 649.587236,157.802857 649.587236,164.754857 C649.587236,169.066857 650.313236,173.400857 651.765236,177.756857 C653.217236,182.112857 655.593236,186.028857 658.893236,189.504857 C662.193236,192.980857 666.505236,195.818857 671.829236,198.018857 C677.153236,200.218857 683.731236,201.318857 691.563236,201.318857 C696.139236,201.318857 700.187236,200.768857 703.707236,199.668857 C707.227236,198.568857 710.241236,197.336857 712.749236,195.972857 C715.257236,194.608857 717.193236,193.332857 718.557236,192.144857 C719.921236,190.956857 720.735236,190.230857 720.999236,189.966857 C721.439236,189.526857 721.989236,189.262857 722.649236,189.174857 C723.309236,189.086857 723.815236,189.394857 724.167236,190.098857 C725.575236,192.914857 728.105236,195.400857 731.757236,197.556857 C735.409236,199.712857 739.919236,200.790857 745.287236,200.790857 C749.159236,200.790857 752.525236,200.394857 755.385236,199.602857 C758.245236,198.810857 760.665236,197.842857 762.645236,196.698857 C764.625236,195.554857 766.209236,194.322857 767.397236,193.002857 C768.585236,191.682857 769.443236,190.538857 769.971236,189.570857 C770.587236,188.338857 770.543236,187.348857 769.839236,186.600857 C769.135236,185.852857 768.167236,185.610857 766.935236,185.874857 Z M721.131236,171.354857 C721.131236,172.410857 720.911236,173.884857 720.471236,175.776857 C720.031236,177.668857 719.261236,179.538857 718.161236,181.386857 C717.061236,183.234857 715.521236,184.818857 713.541236,186.138857 C711.561236,187.458857 708.987236,188.118857 705.819236,188.118857 C702.651236,188.118857 699.945236,187.524857 697.701236,186.336857 C695.457236,185.148857 693.609236,183.608857 692.157236,181.716857 C690.705236,179.824857 689.627236,177.668857 688.923236,175.248857 C688.219236,172.828857 687.867236,170.430857 687.867236,168.054857 C687.867236,164.534857 688.417236,161.212857 689.517236,158.088857 C690.617236,154.964857 692.311236,152.082857 694.599236,149.442857 C696.095236,147.770857 697.701236,146.230857 699.417236,144.822857 C701.133236,143.414857 702.871236,142.006857 704.631236,140.598857 C706.391236,139.014857 708.151236,137.452857 709.911236,135.912857 C711.671236,134.372857 713.387236,132.722857 715.059236,130.962857 C716.027236,129.994857 716.797236,129.158857 717.369236,128.454857 C717.941236,127.750857 718.579236,127.002857 719.283236,126.210857 C719.635236,125.770857 720.031236,125.638857 720.471236,125.814857 C720.911236,125.990857 721.131236,126.342857 721.131236,126.870857 L721.131236,171.354857 Z M767.991236,33.0188571 C766.935236,37.1548571 765.351236,40.9828571 763.239236,44.5028571 C761.127236,48.0228571 758.465236,51.0808571 755.253236,53.6768571 C752.041236,56.2728571 748.323236,58.2968571 744.099236,59.7488571 C739.875236,61.2008571 735.167236,61.9268571 729.975236,61.9268571 C724.519236,61.9268571 719.261236,61.1128571 714.201236,59.4848571 C709.141236,57.8568571 704.191236,56.0528571 699.351236,54.0728571 C694.511236,52.0928571 689.803236,50.2668571 685.227236,48.5948571 C680.651236,46.9228571 676.119236,46.0868571 671.631236,46.0868571 C668.287236,46.0868571 665.581236,46.5708571 663.513236,47.5388571 C661.445236,48.5068571 659.795236,49.4308571 658.563236,50.3108571 C657.771236,50.8388571 657.067236,50.8828571 656.451236,50.4428571 C655.835236,50.0028571 655.747236,49.3428571 656.187236,48.4628571 C658.035236,45.1188571 660.037236,41.9948571 662.193236,39.0908571 C664.349236,36.1868571 666.857236,33.6788571 669.717236,31.5668571 C672.577236,29.4548571 675.811236,27.8048571 679.419236,26.6168571 C683.027236,25.4288571 687.163236,24.8348571 691.827236,24.8348571 C698.075236,24.8348571 703.421236,25.5168571 707.865236,26.8808571 C712.309236,28.2448571 716.445236,29.7188571 720.273236,31.3028571 C724.101236,32.8868571 727.973236,34.3608571 731.889236,35.7248571 C735.805236,37.0888571 740.359236,37.7708571 745.551236,37.7708571 C750.391236,37.7708571 754.329236,37.1548571 757.365236,35.9228571 C760.401236,34.6908571 763.107236,33.1948571 765.483236,31.4348571 C766.187236,30.9068571 766.847236,30.7748571 767.463236,31.0388571 C768.079236,31.3028571 768.255236,31.9628571 767.991236,33.0188571 Z" id="Shape" fill-rule="nonzero"></path>
            <path d="M837.984842,75.9188571 C847.048842,75.9188571 855.386842,77.5248571 862.998842,80.7368571 C870.610842,83.9488571 877.144842,88.3488571 882.600842,93.9368571 C888.056842,99.5248571 892.324842,106.102857 895.404842,113.670857 C898.484842,121.238857 900.024842,129.334857 900.024842,137.958857 C900.024842,146.670857 898.352842,154.854857 895.008842,162.510857 C891.664842,170.166857 887.088842,176.876857 881.280842,182.640857 C875.472842,188.404857 868.630842,192.958857 860.754842,196.302857 C852.878842,199.646857 844.408842,201.318857 835.344842,201.318857 C826.280842,201.318857 817.942842,199.712857 810.330842,196.500857 C802.718842,193.288857 796.184842,188.888857 790.728842,183.300857 C785.272842,177.712857 781.004842,171.156857 777.924842,163.632857 C774.844842,156.108857 773.304842,147.990857 773.304842,139.278857 C773.304842,130.654857 774.976842,122.492857 778.320842,114.792857 C781.664842,107.092857 786.240842,100.360857 792.048842,94.5968571 C797.856842,88.8328571 804.698842,84.2788571 812.574842,80.9348571 C820.450842,77.5908571 828.920842,75.9188571 837.984842,75.9188571 Z M836.664842,194.322857 C840.888842,194.322857 844.562842,192.870857 847.686842,189.966857 C850.810842,187.062857 853.406842,183.080857 855.474842,178.020857 C857.542842,172.960857 859.104842,167.042857 860.160842,160.266857 C861.216842,153.490857 861.744842,146.274857 861.744842,138.618857 C861.744842,130.962857 861.216842,123.746857 860.160842,116.970857 C859.104842,110.194857 857.542842,104.276857 855.474842,99.2168571 C853.406842,94.1568571 850.810842,90.1748571 847.686842,87.2708571 C844.562842,84.3668571 840.888842,82.9148571 836.664842,82.9148571 C832.440842,82.9148571 828.766842,84.3668571 825.642842,87.2708571 C822.518842,90.1748571 819.900842,94.1568571 817.788842,99.2168571 C815.676842,104.276857 814.114842,110.194857 813.102842,116.970857 C812.090842,123.746857 811.584842,130.962857 811.584842,138.618857 C811.584842,146.274857 812.090842,153.490857 813.102842,160.266857 C814.114842,167.042857 815.676842,172.960857 817.788842,178.020857 C819.900842,183.080857 822.518842,187.062857 825.642842,189.966857 C828.766842,192.870857 832.440842,194.322857 836.664842,194.322857 Z" id="Shape" fill-rule="nonzero"></path>
        </g>
    </g>
</svg>